# xmcd
#
# Track frame offsets:
#	150
#	16998
#	38046
#	55644
#	75642
#	93840
#	113163
#	133911
#	155559
#	176682
#	196605
#	240303
#	262176
#	281349
#	301197
#	321120
#	345618
#	362916
#	383064
#
# Disc length: 5332 seconds
#
# Revision: 0
# Processed by: cddbd v1.5.2PL0 Copyright (c) Steve Scherf et al.
# Submitted via: audiograbber 1.83.01
#
DISCID=fd14d213
DTITLE=Eros Ramazzotti - E2
DYEAR=2007
DGENRE=Pop
TTITLE0=Non Siamo Soli (con Ricky Martin)
TTITLE1=Terra Promessa
TTITLE2=Una storia importante
TTITLE3=Un Cuore Con le Ali
TTITLE4=Adesso Tu
TTITLE5=Cantico
TTITLE6=Se Bastasse Una Canzone
TTITLE7=Cose della vita
TTITLE8=Un' altra te
TTITLE9=Favola
TTITLE10=L'aurora
TTITLE11=Piu bella cosa
TTITLE12=Piu che puoi ( with Cher )
TTITLE13=Non ti prometo niente
TTITLE14=I Belong To You (Il Ritmo della Passione) (with Anastacia)
TTITLE15=La Nostra Vita
TTITLE16=Ci Parliamo Da grande
TTITLE17=Dove si nascondono gli Angeli
TTITLE18=Il Tempo Fra di Noi
EXTD=
EXTT0=
EXTT1=
EXTT2=
EXTT3=
EXTT4=
EXTT5=
EXTT6=
EXTT7=
EXTT8=
EXTT9=
EXTT10=
EXTT11=
EXTT12=
EXTT13=
EXTT14=
EXTT15=
EXTT16=
EXTT17=
EXTT18=
PLAYORDER=
